<svg xmlns="http://www.w3.org/2000/svg" viewBox="0 0 28.2 28.2"><defs><style>.cls-1{fill:#d554ec;}.cls-2{isolation:isolate;}.cls-3{fill:#fff;}</style></defs><title>18 age</title><g id="Слой_2" data-name="Слой 2"><g id="Capa_1" data-name="Capa 1"><circle class="cls-1" cx="14.1" cy="14.1" r="14.1"/><g class="cls-2"><path class="cls-3" d="M6.74,11.17h0l-1.83.92-.33-1.43L7,9.46H8.57v10H6.74Z"/><path class="cls-3" d="M11.88,16.9a2.75,2.75,0,0,1,1.88-2.6v-.05A2.44,2.44,0,0,1,12.23,12c0-1.63,1.45-2.74,3.34-2.74,2.16,0,3.14,1.3,3.14,2.53a2.48,2.48,0,0,1-1.54,2.26v.05a2.68,2.68,0,0,1,1.91,2.52c0,1.79-1.51,3-3.65,3C13.09,19.64,11.88,18.3,11.88,16.9Zm5.28-.09c0-1-.76-1.57-1.87-1.88a1.83,1.83,0,0,0-1.47,1.75A1.57,1.57,0,0,0,15.5,18.3,1.51,1.51,0,0,0,17.16,16.81ZM14,12c0,.81.68,1.3,1.63,1.57A1.63,1.63,0,0,0,16.91,12a1.34,1.34,0,0,0-1.43-1.42A1.33,1.33,0,0,0,14,12Z"/></g><g class="cls-2"><path class="cls-3" d="M22.3,12v2h1.87v.84H22.3v2h-.88v-2H19.54V14h1.88V12Z"/></g></g></g></svg>