<svg xmlns="http://www.w3.org/2000/svg" viewBox="0 0 37.8 24.5"><defs><style>.cls-1{fill:#f6ffee;}</style></defs><title>credit card</title><g id="Слой_2" data-name="Слой 2"><g id="Capa_1" data-name="Capa 1"><rect class="cls-1" y="6.6" width="37.8" height="3.7"/><path class="cls-1" d="M37.8,5.1V3.5A3.48,3.48,0,0,0,34.3,0H3.6A3.48,3.48,0,0,0,.1,3.5V5.1Z"/><path class="cls-1" d="M0,11.9V21a3.48,3.48,0,0,0,3.5,3.5H34.2A3.48,3.48,0,0,0,37.7,21V11.9Zm4.4,4.4a.68.68,0,0,1,.7-.7H16.8a.7.7,0,0,1,0,1.4H5.1C4.7,17.1,4.4,16.7,4.4,16.3Zm14.5,4.6H12.6a.7.7,0,1,1,0-1.4h6.3a.68.68,0,0,1,.7.7A.75.75,0,0,1,18.9,20.9Z"/></g></g></svg>