<svg xmlns="http://www.w3.org/2000/svg" viewBox="0 0 490 490" width="512" height="512"><path d="M384.55 31.26h-279.1C47.31 31.26 0 79.61 0 139.02v106.73c0 59.42 47.31 107.76 105.45 107.76h176.41L410.1 458.74V350.27c46.39-11.82 79.9-54.52 79.9-104.51V139.01c0-59.41-47.31-107.76-105.45-107.76zM112.84 238.41c-12.49 0-23.61-2.72-30.82-6.62l5.27-21.26c5.45 3.32 16.77 7.22 25.55 7.22 8.97 0 12.68-3.13 12.68-8 0-4.9-2.93-7.22-14.04-10.93-19.7-6.64-27.32-17.36-27.12-28.68 0-17.75 15.22-31.21 38.82-31.21 11.12 0 21.08 2.52 26.93 5.46l-5.27 20.48c-4.29-2.35-12.48-5.47-20.68-5.47-7.22 0-11.32 2.93-11.32 7.8 0 4.5 3.7 6.84 15.42 10.94 18.14 6.23 25.75 15.41 25.94 29.46 0 17.74-14.04 30.81-41.36 30.81zm203.47-1.94h-28.87v-51.89c0-13.86-4.5-21.86-14.06-21.86-6.82 0-11.7 4.68-13.65 10.35a24.83 24.83 0 0 0-1.17 7.6v55.8H229.7V183c0-12.1-4.3-20.3-13.67-20.3-7.6 0-12.1 5.87-13.85 10.74-.97 2.34-1.16 5.07-1.16 7.42v55.6h-28.88V171.5c0-11.9-.39-22.05-.77-30.43h24.97l1.36 12.87h.58c4.1-6.04 12.49-15.01 28.88-15.01 12.29 0 22.04 6.23 26.14 16.18h.39a42.59 42.59 0 0 1 12.29-11.5c5.28-3.13 11.12-4.68 18.15-4.68 18.33 0 32.2 12.87 32.2 41.35v56.19zm48.93 1.94c-12.48 0-23.61-2.72-30.82-6.62l5.27-21.26c5.46 3.32 16.78 7.22 25.55 7.22 8.97 0 12.68-3.13 12.68-8 0-4.9-2.93-7.22-14.04-10.93-19.7-6.64-27.32-17.36-27.12-28.68 0-17.75 15.22-31.21 38.82-31.21 11.12 0 21.07 2.52 26.93 5.46l-5.27 20.48c-4.29-2.35-12.48-5.47-20.68-5.47-7.22 0-11.32 2.93-11.32 7.8 0 4.5 3.71 6.84 15.42 10.94 18.14 6.23 25.75 15.41 25.94 29.46 0 17.74-14.04 30.81-41.36 30.81z" fill="#FFF"/></svg>