<svg xmlns="http://www.w3.org/2000/svg" viewBox="0 0 28.6 39.7"><defs><style>.cls-1{fill:#f6ffee;}</style></defs><title>id card</title><g id="Слой_2" data-name="Слой 2"><g id="Capa_1" data-name="Capa 1"><path class="cls-1" d="M10.2,21.3a5,5,0,0,0-1.3.4,5.86,5.86,0,0,0,1.8,1.4C10.6,22.6,10.4,22,10.2,21.3Z"/><path class="cls-1" d="M9.8,14.4a14.16,14.16,0,0,1-2.2-.7,7.75,7.75,0,0,0-.7,3,6,6,0,0,0,.7,3A11.39,11.39,0,0,1,9.8,19a17.7,17.7,0,0,1-.1-2.3A17,17,0,0,1,9.8,14.4Z"/><path class="cls-1" d="M9,11.7c.4.1.8.3,1.3.4a18.88,18.88,0,0,1,.6-1.8A5.53,5.53,0,0,0,9,11.7Z"/><path class="cls-1" d="M14.3,9.4c-.5,0-1.3,1.1-1.8,3.1a10.87,10.87,0,0,0,1.8.1,10.87,10.87,0,0,0,1.8-.1C15.6,10.4,14.8,9.4,14.3,9.4Z"/><path class="cls-1" d="M17.9,10.3l.6,1.8a5,5,0,0,0,1.3-.4A8.47,8.47,0,0,0,17.9,10.3Z"/><path class="cls-1" d="M14.3,20.9a10.87,10.87,0,0,0-1.8.1c.5,2.1,1.4,3.1,1.8,3.1S15.6,23,16.1,21A9.72,9.72,0,0,0,14.3,20.9Z"/><path class="cls-1" d="M0,0V39.7H24.2a4.37,4.37,0,0,0,4.4-4.4V3.7A3.69,3.69,0,0,0,24.9,0ZM20.5,31.1H8.1V28.8H20.5ZM16,26.3a9.69,9.69,0,1,1,7.9-7.9A9.72,9.72,0,0,1,16,26.3Z"/><path class="cls-1" d="M21.1,13.7a11.39,11.39,0,0,1-2.2.7,17.7,17.7,0,0,1,.1,2.3,17,17,0,0,1-.1,2.3,14.16,14.16,0,0,1,2.2.7,7.75,7.75,0,0,0,.7-3A9.42,9.42,0,0,0,21.1,13.7Z"/><path class="cls-1" d="M16.6,14.8a16.2,16.2,0,0,1-2.2.1,15.48,15.48,0,0,1-2.2-.1,11.48,11.48,0,0,0-.1,1.9,11.48,11.48,0,0,0,.1,1.9,16.2,16.2,0,0,1,2.2-.1,15.48,15.48,0,0,1,2.2.1,11.48,11.48,0,0,0,.1-1.9C16.7,16,16.6,15.4,16.6,14.8Z"/><path class="cls-1" d="M18.5,21.3a18.88,18.88,0,0,1-.6,1.8,8.62,8.62,0,0,0,1.8-1.4A5.64,5.64,0,0,1,18.5,21.3Z"/></g></g></svg>