<svg xmlns="http://www.w3.org/2000/svg" viewBox="0 0 43.4 30.1"><defs><style>.cls-1{fill:#fff;}.cls-2{fill:#f6ffee;}</style></defs><title>INN</title><g id="Слой_2" data-name="Слой 2"><g id="Capa_1" data-name="Capa 1"><path class="cls-1" d="M29.3,18.3c.2,1.2,1.2,2.5,2.2,2.5s2.2-1.4,2.3-2.5c.1,0,.2-.2.2-.4,0,0,.2-.9-.1-.8a2.63,2.63,0,0,0-.2-2.4,1.81,1.81,0,0,0-1.1-.7l-.4-.1c-.1-.1-.4-.4-.4-.6a1.44,1.44,0,0,0-.3.2.76.76,0,0,1,.2-.4l-.2.2c-.1,0-.3.2-.4.4h0s0-.1-.2-.1a1,1,0,0,0-.3.1,2.82,2.82,0,0,0-1.5,1.5,3.76,3.76,0,0,0,.1,1.9c-.4-.2-.1.7-.1.7C29.1,18.2,29.2,18.3,29.3,18.3Zm2.1-4.9a.37.37,0,0,0-.1.3h0A.37.37,0,0,1,31.4,13.4Z"/><path class="cls-2" d="M43.4,1.2A1.22,1.22,0,0,0,42.2,0H1.2A1.22,1.22,0,0,0,0,1.2V28.9a1.22,1.22,0,0,0,1.2,1.2h38a12.67,12.67,0,0,1,4.2-2.5ZM15.3,26H4.2V23.9H15.3Zm0-5.8H4.2V18.1H15.3Zm3.8-6H4.1V12.1h15ZM38.9,26.4H37.2a10,10,0,0,0-.8-4c-.3-.7-2.2-1.3-2.2-1.3-1-.4-1-.7-1-.7-2,3.9-3.5,0-3.5,0-.1.5-2.2,1.1-2.2,1.1a1.39,1.39,0,0,0-.8.6c-.9,1.3-1,4.2-1,4.2v.1h-.9v-15h14v15Zm.4-18.3H4.2A1.22,1.22,0,0,1,3,6.9v-2A1.22,1.22,0,0,1,4.2,3.7H39.3a1.22,1.22,0,0,1,1.2,1.2v2h0A1.29,1.29,0,0,1,39.3,8.1Z"/></g></g></svg>