<svg xmlns="http://www.w3.org/2000/svg" viewBox="0 0 28.2 28.2"><defs><style>.cls-1{fill:#d554ec;}.cls-2{fill:#fff;}</style></defs><title>ua</title><g id="Слой_2" data-name="Слой 2"><g id="Capa_1" data-name="Capa 1"><circle class="cls-1" cx="14.1" cy="14.1" r="14.1"/><path class="cls-2" d="M7.67,9.64v5.79c0,1.94.81,2.84,2,2.84s2.09-.9,2.09-2.84V9.64H13.6v5.67c0,3.06-1.57,4.42-4,4.42s-3.78-1.28-3.78-4.41V9.64Z"/><path class="cls-2" d="M17.19,16.75l-.85,2.82H14.47l3.18-9.93H20l3.22,9.93H21.24l-.9-2.82ZM20,15.38l-.78-2.44c-.19-.6-.35-1.28-.5-1.86h0c-.14.58-.29,1.27-.47,1.86l-.76,2.44Z"/></g></g></svg>