<svg xmlns="http://www.w3.org/2000/svg" viewBox="0 0 43.7 57.7"><defs><style>.cls-1{fill:#f6ffee;}</style></defs><title>user</title><g id="Слой_2" data-name="Слой 2"><g id="Capa_1" data-name="Capa 1"><path class="cls-1" d="M11.7,43,1.6,48.5A6.1,6.1,0,0,0,0,49.7a33.65,33.65,0,0,0,21.9,8,34,34,0,0,0,21.8-7.9,5.67,5.67,0,0,0-1.8-1.2l-11-5.4a4.11,4.11,0,0,1-2.3-3.7V35.2a7.34,7.34,0,0,0,1-1.3A25.48,25.48,0,0,0,33,27.1a3.33,3.33,0,0,0,2.4-3.2V19.4a3.25,3.25,0,0,0-1.1-2.5V10.2S35.7,0,21.8,0,9.3,10.2,9.3,10.2v6.6a3.25,3.25,0,0,0-1.1,2.5v4.5a3.36,3.36,0,0,0,1.6,2.9,23.11,23.11,0,0,0,4,8.5v4.2A4.08,4.08,0,0,1,11.7,43Z"/></g></g></svg>