
<svg xmlns="http://www.w3.org/2000/svg" viewBox="0 0 472.034 472.034"><path d="M60.978 136.034h352v320c0 8.837-7.163 16-16 16h-328c-17.673 0-32-14.327-32-32v-280c0-13.254 10.745-24 24-24z" fill="#804d35"/><path d="M308.978 288.034h104v96h-104c-26.51 0-48-21.49-48-48s21.49-48 48-48z" fill="#533222"/><circle cx="308.978" cy="334.698" r="16" fill="#b9b9b9"/><path d="M68.978 136.034h336v64h-336c-17.673 0-32-14.327-32-32s14.326-32 32-32z" fill="#804d35"/><path d="M36.978 160.034v16h368v-40h-344c-13.255 0-24 10.746-24 24z" fill="#744630"/><g fill="#533222"><path d="M132.978 224.034h32v16h-32v-16zM84.978 224.034h32v16h-32v-16zM180.978 224.034h32v16h-32v-16zM36.978 227.298v5.208l4.8 2.64a39.9898 39.9898 0 0 0 19.2 4.888h8v-16h-8c-4.016.004-7.969-1-11.496-2.92l-7.016-3.848-5.488 10.032zM228.978 224.034h32v16h-32v-16zM324.978 224.034h32v16h-32v-16zM372.978 224.034h32v16h-32v-16zM276.978 224.034h32v16h-32v-16zM132.978 432.034h32v16h-32v-16zM84.978 432.034h32v16h-32v-16zM180.978 432.034h32v16h-32v-16zM68.978 448.034v-16h-8c-4.016.004-7.969-1-11.496-2.92l-7.016-3.848-5.488 10.032v4.736c0 .168.048.328.048.504l4.8 2.608a40.0059 40.0059 0 0 0 19.152 4.888h8zM228.978 432.034h32v16h-32v-16zM372.978 432.034h32v16h-32v-16zM276.978 432.034h32v16h-32v-16zM324.978 432.034h32v16h-32v-16z"/></g><path d="M68.978 136.034c-17.673 0-32 14.327-32 32s14.327 32 32 32h336v-64h-336z" fill="#744630"/><path d="M356.978 176.034h-184c-4.418.002-8.001-3.579-8.003-7.997 0-1.018.193-2.026.571-2.971l64-160c1.537-3.849 5.758-5.887 9.728-4.696l160 48c4.231 1.271 6.631 5.732 5.36 9.964-.039.131-.082.26-.128.388l-40 112c-1.136 3.183-4.149 5.31-7.528 5.312z" fill="#6f9935"/><path d="M216.978 168.034l60-160L388.45 45.618l46.632 15.72-38.104 106.696h-180z" fill="#aac16b"/><path d="M260.978 176.034h-184c-3.379-.003-6.393-2.129-7.528-5.312l-40-112c-1.486-4.161.683-8.739 4.844-10.224.128-.046.258-.088.388-.128l160-48c3.97-1.191 8.191.847 9.728 4.696l64 160c1.639 4.103-.358 8.758-4.461 10.397-.946.378-1.954.572-2.971.571z" fill="#eaeae8"/><path d="M396.978 176.034h-180c-4.418.004-8.004-3.574-8.008-7.992a7.987 7.987 0 0 1 .512-2.824l60-160c1.503-4.051 5.952-6.176 10.048-4.8l158.104 53.344c4.181 1.428 6.413 5.975 4.984 10.157-.013.039-.027.077-.04.115l-38.072 106.688c-1.136 3.183-4.149 5.31-7.528 5.312z" fill="#79a73a"/><path d="M216.978 168.034l60-160L388.45 45.618l46.632 15.72-38.104 106.696h-180z" fill="#aac16b"/><g fill="#787d82"><path d="M116.978 168.034h40L96.514 29.818l-31.088 9.328 51.552 128.888zM164.178 85.402a8.0035 8.0035 0 0 1-4.392-1.32c-11.069-7.291-14.131-22.176-6.84-33.245s22.176-14.131 33.245-6.84c10.243 6.748 13.75 20.133 8.131 31.037-2.028 3.926-6.854 5.464-10.78 3.436-3.926-2.028-5.464-6.854-3.436-10.78.58-1.131.88-2.385.872-3.656-.001-4.418-3.583-7.999-8.001-7.999-4.418.001-7.999 3.583-7.999 8.001 0 2.694 1.357 5.206 3.608 6.685 3.689 2.431 4.709 7.393 2.278 11.082a8 8 0 0 1-6.694 3.598l.008.001z"/><path d="M180.978 112.034c-13.255 0-24-10.745-24-24s10.745-24 24-24 24 10.745 24 24-10.746 24-24 24zm0-32c-4.418 0-8 3.582-8 8s3.582 8 8 8 8-3.582 8-8-3.582-8-8-8z"/></g><g fill="#79a73a"><path d="M384.346 55.674l4.104-10.04 46.632 15.72-21.248 59.48c-25.717-8.924-39.33-37.005-30.407-62.722.284-.82.591-1.633.919-2.438z"/><path d="M413.826 128.834a8.0852 8.0852 0 0 1-2.808-.512c-29.844-10.492-45.533-43.191-35.041-73.035.312-.887.645-1.766 1.001-2.637l4.096-10.048c1.596-3.911 5.957-5.908 9.96-4.56l46.632 15.72c4.176 1.444 6.39 6 4.946 10.175-.011.032-.023.065-.034.097l-21.248 59.504a7.996 7.996 0 0 1-4.552 4.728c-.94.373-1.942.566-2.952.568zM320.418 35.394l2.96-10.456-46.48-16.224-19.768 60c25.771 8.753 53.758-5.043 62.51-30.814.281-.827.541-1.663.778-2.506z"/><path d="M273.066 79.386a57.5354 57.5354 0 0 1-18.488-3.08c-4.174-1.399-6.433-5.907-5.056-10.088l19.768-60a8.055 8.055 0 0 1 4.064-4.672 7.928 7.928 0 0 1 6.176-.376l46.464 16.224c3.991 1.393 6.209 5.651 5.064 9.72l-2.936 10.44c-6.96 24.669-29.425 41.738-55.056 41.832z"/></g><path d="M38.106 160.034a28.9328 28.9328 0 0 0 0 16h366.872v-16H38.106z" fill="#533222"/><path d="M38.13 160.034a31.1442 31.1442 0 0 0-1.152 8c.193 17.865 14.831 32.191 32.696 32h343.304v-40H38.13z" fill="#744630"/><path d="M287.082 168.194c-5.745-13.612.632-29.304 14.244-35.049 13.612-5.745 29.304.632 35.049 14.244a26.753 26.753 0 0 1 .067 20.646" fill="#79a73a"/><path d="M38.13 160.034a28.3538 28.3538 0 0 0 0 16h374.848v-16H38.13z" fill="#533222"/></svg>